<?xml version="1.0" encoding="iso-8859-1"?>
<!-- Generator: Adobe Illustrator 16.0.0, SVG Export Plug-In . SVG Version: 6.00 Build 0)  -->
<!DOCTYPE svg PUBLIC "-//W3C//DTD SVG 1.1//EN" "http://www.w3.org/Graphics/SVG/1.1/DTD/svg11.dtd">
<svg version="1.1" id="Capa_1" xmlns="http://www.w3.org/2000/svg" xmlns:xlink="http://www.w3.org/1999/xlink" x="0px" y="0px"
	 width="741.326px" height="741.325px" viewBox="0 0 741.326 741.325" style="enable-background:new 0 0 741.326 741.325;"
	 xml:space="preserve">
<g>
	<g>
		<path d="M131.92,171.34l0.34,0.138l498.4,181.589c9.738,4.094,16.016,13.523,16.016,24.111v89.489
			c0,14.423-11.734,26.157-26.158,26.157h-1.152l-67.197,7.777c2.166,12.805,3.912,26.031,5.23,39.661l64.375-7.449
			c35.902-0.67,64.902-30.084,64.902-66.146V377.18c0-27.046-16.189-51.104-41.246-61.289l-0.34-0.138l-498.398-181.59
			c-9.74-4.093-16.016-13.523-16.016-24.111v-0.78c0-14.423,11.734-26.157,26.157-26.157h436.843v39.115c0,11.046,8.953,20,20,20h4
			c11.045,0,20-8.954,20-20V20c0-11.046-8.955-20-20-20h-4c-11.047,0-20,8.954-20,20v23.115H156.832
			c-36.479,0-66.157,29.678-66.157,66.157v0.78C90.675,137.098,106.865,161.156,131.92,171.34z"/>
		<path d="M297.675,269.325c-98.519,0-183.333,55.656-221.401,177.865h442.802C481.007,324.981,396.193,269.325,297.675,269.325z
			 M410.646,402.754H184.704c-8.272,0-14.45-7.759-12.431-15.78c10.582-42.048,62.7-73.98,125.402-73.98
			s114.821,31.932,125.403,73.98C425.095,394.995,418.917,402.754,410.646,402.754z"/>
		<path d="M149.795,521.035c69.005,0,125.145,56.14,125.145,125.146c0,32.644-12.569,62.402-33.114,84.706
			c2.459,0.009,4.927,0.015,7.415,0.015c15.648,0,31.852-0.146,48.434-0.146c16.59,0,32.779,0.146,48.434,0.146
			c110.883,0,194.366-7.271,194.366-124.776c0-22.382-1.006-43.555-2.928-63.565c-1.322-13.776-3.09-26.986-5.264-39.657
			c-1.518-8.836-3.232-17.407-5.145-25.712H68.209c-5.996,26.061-10.099,54.707-12.04,86.049
			C79.113,537.37,112.58,521.035,149.795,521.035z"/>
		<path d="M149.795,741.325c8.375,0,16.499-1.092,24.242-3.134c7.459-1.967,14.563-4.815,21.191-8.434
			c29.591-16.149,49.712-47.558,49.712-83.577c0-52.464-42.682-95.146-95.145-95.146c-46.754,0-85.739,33.898-93.67,78.408
			c-0.969,5.435-1.475,11.028-1.475,16.737c0,11.618,2.097,22.756,5.927,33.057C74.039,715.453,108.951,741.325,149.795,741.325z"/>
	</g>
</g>
<g>
</g>
<g>
</g>
<g>
</g>
<g>
</g>
<g>
</g>
<g>
</g>
<g>
</g>
<g>
</g>
<g>
</g>
<g>
</g>
<g>
</g>
<g>
</g>
<g>
</g>
<g>
</g>
<g>
</g>
</svg>
