<?xml version="1.0" encoding="utf-8"?>
<!-- Generator: Adobe Illustrator 19.0.0, SVG Export Plug-In . SVG Version: 6.00 Build 0)  -->
<svg version="1.1" id="Capa_1" xmlns="http://www.w3.org/2000/svg" xmlns:xlink="http://www.w3.org/1999/xlink" x="0px" y="0px"
	 viewBox="379 -404.6 958.6 958.6" style="enable-background:new 379 -404.6 958.6 958.6;" xml:space="preserve">
<style type="text/css">
	.st0{fill:#333399;}
</style>
<g>
	<g>
		<path class="st0" d="M507.3-4.8h15.4V269h186.7V97.1c4.1-0.8,8.3-1.8,12.5-3c4.4-1.3,8.7-3,12.5-5c12.8-6.7,20.8-17.6,12.3-35.4
			c-6.3-13.1-9.5-24.2-11-33.5c-0.7-4.7-1-8.8-1-12.5c0-5.1,0.6-9.3,1.4-12.5h228.7c11.1,0,20.1-9,20.1-20.1v-2.4v-301.5v-2.4
			c0-11.1-9-20.1-20.1-20.1H507.3c-70.9,0-128.3,57.4-128.3,128.3v89.8C379-62.2,436.4-4.8,507.3-4.8z M686.7-246.1
			c9.8-9.8,25.6-9.8,35.4,0c9.8,9.8,9.8,25.6,0,35.4l-74.4,74.4c-4.9,4.9-11.3,7.3-17.7,7.3c-6.4,0-12.8-2.4-17.7-7.3
			c-9.8-9.8-9.8-25.6,0-35.4L686.7-246.1z M491.1-171.7l74.4-74.4c9.8-9.8,25.6-9.8,35.4,0s9.8,25.6,0,35.4l-74.4,74.4
			c-4.9,4.9-11.3,7.3-17.7,7.3c-6.4,0-12.8-2.4-17.7-7.3C481.3-146.1,481.3-162,491.1-171.7z"/>
		<path class="st0" d="M891.9,470.5V324.1c0-16.7-13.5-30.2-30.2-30.2H734.4h-12.5h-12.5H522.7h-12.5h-12.5h-11.3
			c-16.7,0-30.2,13.5-30.2,30.2v146.3c0,16.7,13.5,30.2,30.2,30.2h375.3C878.4,500.6,891.9,487.1,891.9,470.5z"/>
		<path class="st0" d="M1312.1-203.5h-178.6c-10.7-63-60.5-112.7-123.6-123.2v297.4c63.1-10.5,112.9-60.2,123.6-123.2h178.6
			c14.1,0,25.5-11.4,25.5-25.5S1326.2-203.5,1312.1-203.5z"/>
	</g>
</g>
</svg>
